<svg width="112" height="108" viewBox="0 0 112 108" fill="none" xmlns="http://www.w3.org/2000/svg">
<g clip-path="url(#clip0_139_55)">
<path fill-rule="evenodd" clip-rule="evenodd" d="M69.7858 61.937C71.6841 68.3764 70.0598 74.6172 66.528 79.8325C62.5725 85.6707 56.2158 90.1883 50.0678 92.2245C47.9023 92.8331 45.7019 93.1967 43.4573 93.3477C40.2206 93.5576 36.9347 93.3483 33.6116 92.9227C33.2958 92.9038 33.0543 92.6259 33.0694 92.3081C33.0845 91.9902 33.3577 91.75 33.6735 91.7689C36.3635 91.7754 39.0015 91.6373 41.5945 91.2687C44.1699 90.9007 46.6612 90.2964 49.0701 89.3273C54.5932 87.4137 60.2424 83.246 63.7705 77.9416C66.6655 73.5839 68.1012 68.4294 66.6021 63.0833C65.2252 63.5072 63.8332 63.821 62.4176 63.9929C59.674 64.3161 56.8646 64.0743 53.986 62.9324C51.9674 62.1314 49.3509 60.4822 47.9083 58.4653C46.6236 56.6717 46.1846 54.6168 47.2301 52.5163C49.3257 48.34 53.2077 47.7322 57.3089 49.1718C61.924 50.7952 66.7424 55.1941 68.5565 58.7474C69.8544 58.2118 71.1217 57.6201 72.3713 57.0289C77.5357 54.5736 81.6478 50.2071 84.0767 44.7653C86.3274 39.7213 87.1244 33.759 85.978 27.5284C85.1291 22.5012 82.5982 18.0463 79.6955 14.3588C77.6746 11.7926 75.4585 9.64253 73.4046 7.9047C71.5341 6.32171 69.8889 5.05276 68.424 4.37739C68.3595 4.35798 68.3212 4.28783 68.3398 4.22307C68.3583 4.15831 68.4276 4.12052 68.4921 4.13993C70.1458 4.42078 72.2369 5.09117 74.4522 6.36757C76.9392 7.7961 79.5126 9.94235 81.8424 12.5312C85.3294 16.4004 88.1199 21.3965 89.2352 26.9612C90.528 33.9041 89.6322 40.5576 87.1261 46.1872C84.3809 52.3662 79.7024 57.3244 73.8374 60.1257C72.5116 60.7585 71.1575 61.3885 69.7758 61.9516L69.7858 61.937ZM65.3375 59.8948C64.2359 60.2139 63.1206 60.4586 61.9901 60.5932C59.7853 60.8499 57.5266 60.6625 55.2093 59.7423C53.9462 59.2391 52.3612 58.3106 51.233 57.1328C50.3893 56.2458 49.7341 55.2103 50.2862 54.0985C51.4951 51.672 53.838 51.5857 56.2154 52.4185C59.8713 53.7006 63.7188 57.0451 65.3306 59.8985L65.3375 59.8948Z" fill="#FF881B"/>
<path fill-rule="evenodd" clip-rule="evenodd" d="M34.7722 91.6506C35.7923 92.1037 36.8191 92.5532 37.847 93.0207C39.0512 93.5697 40.2513 94.1116 41.4374 94.7079C44.459 96.238 47.3459 97.9071 50.2762 99.5432C50.5633 99.667 50.7132 100.006 50.6154 100.293C50.5108 100.584 50.1974 100.718 49.9075 100.605C47.2425 99.8246 44.5803 99.1458 41.8849 98.326C40.7385 97.9793 39.6018 97.6179 38.482 97.1912C35.9671 96.2355 33.5302 95.0689 31.1214 93.9056C30.8293 93.7565 30.3605 93.4606 30.0669 93.1159C29.7362 92.7353 29.5351 92.3027 29.4816 91.883C29.4263 91.4923 29.4456 90.9487 29.8637 90.4118C30.0482 90.1708 30.5293 89.7492 31.3083 89.3426C33.8538 87.9902 40.4892 85.5086 41.8541 84.9692L44.5962 84.0894C44.7579 84.0479 44.9833 83.9622 45.2435 83.9885C45.595 84.0211 45.9921 84.0568 46.2144 84.2067C46.3888 84.3172 46.2196 84.5218 46.3188 84.4302C46.395 84.3606 46.3744 84.5963 46.3187 84.5425C46.1212 84.3417 46.2913 84.7819 46.163 84.7397C45.842 84.6344 46.2967 84.9847 46.0577 85.0777C45.9726 85.1149 46.1455 85.142 46.0722 85.2008C45.9651 85.278 46.2355 85.2426 46.1492 85.3739C46.0984 85.4577 46.2878 85.3543 46.2498 85.4779C46.2204 85.5688 46.3886 85.346 46.3664 85.4984C46.3538 85.6362 46.4229 85.3928 46.4229 85.3928C46.4229 85.3928 46.4481 85.5193 46.4417 85.1861C46.3776 85.165 46.3315 85.0966 46.3552 85.0276C46.3722 84.9622 46.4359 84.918 46.504 84.9463C46.8655 84.2253 46.5734 84.8804 46.8175 84.7003C46.9044 84.6342 46.8473 84.787 46.9228 84.7645C47.3032 84.641 46.847 85.0116 47.0963 85.1467C47.1976 85.2036 46.9881 85.2058 47.0809 85.2954C47.2401 85.4423 46.8489 85.2724 46.9403 85.5685C46.988 85.7202 46.7805 85.4688 46.7536 85.7733C46.7358 85.9981 46.8267 85.8269 46.5768 86.1411C46.3912 86.364 45.8216 86.4786 45.618 86.6365L43.1182 87.8797C42.071 88.3579 37.684 90.2292 34.7908 91.6685L34.7722 91.6506Z" fill="#FF881B"/>
</g>
<defs>
<clipPath id="clip0_139_55">
<rect width="86" height="75" fill="white" transform="matrix(-0.877713 0.479187 0.479187 0.877713 76 0)"/>
</clipPath>
</defs>
</svg>
