<svg width="165" height="152" viewBox="0 0 165 152" fill="none" xmlns="http://www.w3.org/2000/svg">
<g clip-path="url(#clip0_139_192)">
<path fill-rule="evenodd" clip-rule="evenodd" d="M75.5249 99.9674C80.4214 109.452 89.1907 114.834 99.045 116.941C110.078 119.297 122.444 117.496 131.831 113.074C135.018 111.392 137.975 109.39 140.749 107.095C144.74 103.776 148.326 99.9226 151.717 95.7791C152.063 95.4102 152.037 94.8254 151.669 94.4769C151.301 94.1285 150.719 94.153 150.373 94.5219C147.255 97.4875 144.039 100.23 140.62 102.658C137.223 105.068 133.662 107.113 129.795 108.649C121.269 112.525 110.111 113.95 100.163 111.737C91.994 109.915 84.6417 105.572 80.4873 97.783C82.5541 96.7558 84.5171 95.5854 86.3511 94.2261C89.8945 91.5803 92.8913 88.213 94.9757 83.7357C96.4372 80.5958 97.6577 75.824 97.109 71.9207C96.6233 68.4477 94.867 65.6045 91.3361 64.3414C84.2962 61.8487 79.1165 65.4195 75.94 71.5833C72.3696 78.5233 71.6237 88.8751 73.4351 94.9517C71.3368 95.7638 69.2122 96.4777 67.1088 97.1728C58.4019 100.032 48.8097 99.5381 39.9869 95.9583C31.8098 92.6394 24.3085 86.6672 18.7689 78.2495C14.2107 71.5413 12.2377 63.6407 11.5427 56.213C11.0602 51.0428 11.2632 46.136 11.7324 41.8811C12.1595 38.0057 12.671 34.7389 13.6278 32.3522C13.6813 32.259 13.6484 32.1363 13.5555 32.0823C13.4625 32.0283 13.3404 32.061 13.2869 32.1542C11.6756 34.2955 9.98594 37.3651 8.82034 41.2674C7.50686 45.6433 6.8846 50.9386 7.03334 56.4745C7.24986 64.7536 9.51828 73.5613 14.3597 81.1799C20.515 90.5767 28.8933 97.2344 38.0129 100.945C48.0161 105.024 58.9187 105.574 68.821 102.342C71.0588 101.611 73.3266 100.846 75.5526 99.9731L75.5249 99.9674ZM78.4398 92.7296C80.0713 91.8848 81.6367 90.9394 83.0983 89.8508C85.9426 87.721 88.3596 85.022 90.0366 81.4166C90.9487 79.4495 91.766 76.6399 91.7776 74.0463C91.7793 72.0996 91.3984 70.1896 89.531 69.5196C85.4507 68.0618 82.6341 70.5392 80.7909 74.1102C77.9581 79.6033 77.1773 87.6763 78.452 92.7264L78.4398 92.7296Z" fill="#FF881B"/>
<path fill-rule="evenodd" clip-rule="evenodd" d="M149.48 95.4391C148.779 97.0717 148.065 98.7076 147.371 100.365C146.559 102.308 145.743 104.239 145.005 106.216C143.136 111.265 141.58 116.324 139.936 121.393C139.734 121.848 139.933 122.397 140.367 122.615C140.813 122.83 141.331 122.638 141.547 122.192C143.827 118.384 146.215 114.694 148.487 110.808C149.455 109.157 150.395 107.501 151.244 105.789C153.151 101.946 154.733 97.9508 156.286 93.9899C156.465 93.5004 156.691 92.6508 156.655 91.938C156.623 91.1439 156.381 90.4329 155.979 89.8985C155.611 89.3951 154.986 88.8002 153.898 88.6503C153.413 88.5796 152.378 88.6294 151.009 89.0232C146.507 90.2829 135.928 94.7494 133.72 95.6354L129.51 97.6464C129.273 97.7767 128.912 97.9269 128.634 98.2421C128.256 98.6646 127.827 99.1407 127.731 99.5544C127.648 99.8711 128.074 99.9173 127.855 99.9224C127.688 99.927 127.974 100.172 127.98 100.05C127.99 99.6053 128.278 100.291 128.382 100.102C128.644 99.6308 128.496 100.527 128.881 100.37C129.023 100.319 128.849 100.539 129 100.525C129.212 100.495 128.854 100.752 129.101 100.806C129.254 100.845 128.916 100.936 129.098 101.034C129.233 101.105 128.788 101.037 128.983 101.185C129.151 101.328 128.799 101.128 128.799 101.128C128.799 101.128 128.91 101.299 128.548 100.914C128.6 100.82 128.579 100.692 128.475 100.639C128.382 100.584 128.258 100.604 128.209 100.711C126.983 100.29 128.054 100.712 127.566 100.776C127.391 100.796 127.627 100.906 127.513 100.964C126.928 101.241 127.877 101.161 127.732 101.587C127.676 101.763 127.925 101.536 127.915 101.739C127.89 102.08 128.163 101.458 128.384 101.894C128.496 102.119 128.462 101.606 128.831 101.922C129.101 102.157 128.804 102.063 129.447 102.145C129.913 102.194 130.712 101.699 131.127 101.654L135.454 100.321C137.22 99.7141 144.469 97.0224 149.478 95.4798L149.48 95.4391Z" fill="#FF881B"/>
</g>
<defs>
<clipPath id="clip0_139_192">
<rect width="137.76" height="119.633" fill="white" transform="translate(0 35.6553) rotate(-15)"/>
</clipPath>
</defs>
</svg>
