<svg width="100" height="100" viewBox="0 0 100 100" fill="none" xmlns="http://www.w3.org/2000/svg">
<circle cx="50" cy="50" r="50" fill="#FF891C"/>
<path d="M28.327 29.638L30.5545 30.773L28.327 29.638ZM28.7698 72.2224L26.9932 70.4636L26.9932 70.4636L28.7698 72.2224ZM70.362 60.673L69.227 58.4455L70.362 60.673ZM71.673 59.362L69.4455 58.227V58.227L71.673 59.362ZM71.673 29.638L73.9005 28.5031V28.5031L71.673 29.638ZM70.362 28.327L69.227 30.5545V30.5545L70.362 28.327ZM29.638 28.327L30.773 30.5545L29.638 28.327ZM38.8178 62.073L37.0411 60.3141L38.8178 62.073ZM30.5 32.8C30.5 31.9187 30.5019 31.408 30.5326 31.0332C30.5608 30.6875 30.6005 30.6827 30.5545 30.773L26.0995 28.5031C25.7265 29.2351 25.6027 29.9712 25.5492 30.626C25.4981 31.2517 25.5 32.0012 25.5 32.8H30.5ZM30.5 48V32.8H25.5V48H30.5ZM25.5 48V61H30.5V48H25.5ZM25.5 61V61.8889H30.5V61H25.5ZM25.5 61.8889V71.9058H30.5V61.8889H25.5ZM25.5 71.9058C25.5 74.5412 28.6924 75.8541 30.5464 73.9813L26.9932 70.4636C28.2816 69.1622 30.5 70.0745 30.5 71.9058H25.5ZM30.5464 73.9813L40.5944 63.8318L37.0411 60.3141L26.9932 70.4636L30.5464 73.9813ZM67.2 58.5H39.6298V63.5H67.2V58.5ZM69.227 58.4455C69.3173 58.3995 69.3125 58.4392 68.9668 58.4674C68.592 58.4981 68.0813 58.5 67.2 58.5V63.5C67.9988 63.5 68.7483 63.5019 69.374 63.4508C70.0288 63.3973 70.7649 63.2735 71.4969 62.9005L69.227 58.4455ZM69.4455 58.227C69.3976 58.3211 69.3211 58.3976 69.227 58.4455L71.4969 62.9005C72.5318 62.3732 73.3732 61.5318 73.9005 60.4969L69.4455 58.227ZM69.5 56.2C69.5 57.0813 69.4981 57.592 69.4674 57.9668C69.4392 58.3125 69.3995 58.3173 69.4455 58.227L73.9005 60.4969C74.2735 59.7649 74.3973 59.0288 74.4508 58.374C74.5019 57.7483 74.5 56.9988 74.5 56.2H69.5ZM69.5 32.8V56.2H74.5V32.8H69.5ZM69.4455 30.773C69.3995 30.6827 69.4392 30.6875 69.4674 31.0332C69.4981 31.408 69.5 31.9187 69.5 32.8H74.5C74.5 32.0012 74.5019 31.2517 74.4508 30.626C74.3973 29.9712 74.2735 29.2351 73.9005 28.5031L69.4455 30.773ZM69.227 30.5545C69.3211 30.6024 69.3976 30.6789 69.4455 30.773L73.9005 28.5031C73.3732 27.4682 72.5318 26.6268 71.4969 26.0995L69.227 30.5545ZM67.2 30.5C68.0813 30.5 68.592 30.5019 68.9668 30.5326C69.3125 30.5608 69.3173 30.6005 69.227 30.5545L71.4969 26.0995C70.7649 25.7265 70.0288 25.6027 69.374 25.5492C68.7483 25.4981 67.9988 25.5 67.2 25.5V30.5ZM32.8 30.5H67.2V25.5H32.8V30.5ZM30.773 30.5545C30.6827 30.6005 30.6875 30.5608 31.0332 30.5326C31.408 30.5019 31.9187 30.5 32.8 30.5V25.5C32.0012 25.5 31.2517 25.4981 30.626 25.5492C29.9712 25.6027 29.2351 25.7265 28.5031 26.0995L30.773 30.5545ZM30.5545 30.773C30.6024 30.6789 30.6789 30.6024 30.773 30.5545L28.5031 26.0995C27.4682 26.6268 26.6268 27.4682 26.0995 28.5031L30.5545 30.773ZM41.5 61.6298C41.5 62.6627 40.6627 63.5 39.6298 63.5V58.5C37.9013 58.5 36.5 59.9013 36.5 61.6298H41.5ZM40.5944 63.8318C41.1746 63.2458 41.5 62.4545 41.5 61.6298H36.5C36.5 61.1371 36.6945 60.6643 37.0411 60.3141L40.5944 63.8318Z" fill="white"/>
<path d="M39 39L61 39" stroke="white" stroke-width="5" stroke-linecap="round" stroke-linejoin="round"/>
<path d="M39 50L53 50" stroke="white" stroke-width="5" stroke-linecap="round" stroke-linejoin="round"/>
</svg>
