<svg width="15" height="18" viewBox="0 0 15 18" fill="none" xmlns="http://www.w3.org/2000/svg">
<path d="M11.5168 6.39973C11.3557 6.21526 11.2752 5.99605 11.2752 5.74209C11.2752 5.48875 11.3557 5.26985 11.5168 5.08537L12.2416 4.25525H8.89933C8.67114 4.25525 8.48 4.16671 8.32591 3.98962C8.17128 3.81314 8.09396 3.59423 8.09396 3.3329C8.09396 3.07156 8.17128 2.85266 8.32591 2.67618C8.48 2.49909 8.67114 2.41054 8.89933 2.41054H12.2416L11.5168 1.58042C11.3557 1.39595 11.2787 1.18073 11.2856 0.934772C11.2921 0.688811 11.3691 0.473594 11.5168 0.289123C11.6779 0.104652 11.8693 0.00841946 12.091 0.000425703C12.3122 -0.00695315 12.5034 0.0815929 12.6644 0.266064L14.7785 2.68725C14.8591 2.77948 14.916 2.87941 14.9493 2.98702C14.9831 3.09462 15 3.20992 15 3.3329C15 3.45588 14.9831 3.57117 14.9493 3.67878C14.916 3.78639 14.8591 3.88631 14.7785 3.97855L12.6443 6.42279C12.4832 6.60726 12.2953 6.69581 12.0805 6.68843C11.8658 6.68044 11.6779 6.5842 11.5168 6.39973ZM13.651 17.1221C11.9195 17.1221 10.2317 16.68 8.58765 15.7958C6.94309 14.9122 5.48671 13.7438 4.21852 12.2908C2.9498 10.8384 1.92966 9.17049 1.15812 7.28704C0.38604 5.4042 0 3.47125 0 1.48819C0 1.21148 0.0805369 0.98089 0.241611 0.796419C0.402685 0.611948 0.604027 0.519712 0.845638 0.519712H4.10738C4.2953 0.519712 4.46309 0.588889 4.61074 0.727242C4.75839 0.865596 4.84564 1.04238 4.87248 1.2576L5.39597 4.48584C5.42282 4.70106 5.4196 4.89691 5.38631 5.07338C5.35248 5.25048 5.27517 5.4082 5.15436 5.54655L3.22148 7.80632C3.78523 8.91315 4.48993 9.9508 5.33557 10.9193C6.18121 11.8878 7.11409 12.7256 8.13423 13.4327L10.0268 11.2652C10.1477 11.1268 10.3055 11.0229 10.5004 10.9534C10.6948 10.8845 10.8859 10.8655 11.0738 10.8962L13.8524 11.5419C14.0403 11.588 14.1946 11.6916 14.3154 11.8527C14.4362 12.0144 14.4966 12.2029 14.4966 12.4181V16.1536C14.4966 16.4304 14.4161 16.6609 14.255 16.8454C14.094 17.0299 13.8926 17.1221 13.651 17.1221Z" fill="#262626"/>
</svg>
