<svg width="100" height="100" viewBox="0 0 100 100" fill="none" xmlns="http://www.w3.org/2000/svg">
<circle cx="50" cy="50" r="50" fill="#FF891C"/>
<path d="M66.3569 33.7135C62.0954 29.3622 56.2044 27 50.188 27C37.4033 27 27.1253 37.3189 27.2507 49.8757C27.2507 53.8541 28.3787 57.7081 30.2589 61.1892L27 73L39.158 69.8919C42.5422 71.7568 46.3025 72.627 50.0627 72.627C62.7221 72.627 73 62.3081 73 49.7514C73 43.6595 70.6185 37.9405 66.3569 33.7135ZM50.188 68.773C46.8038 68.773 43.4196 67.9027 40.5368 66.1622L39.7847 65.7892L32.515 67.6541L34.3951 60.5676L33.8937 59.8216C28.3787 50.9946 31.0109 39.3081 40.0354 33.8378C49.0599 28.3676 60.7166 30.9784 66.2316 39.9297C71.7466 48.8811 69.1144 60.4432 60.0899 65.9135C57.2071 67.7784 53.6975 68.773 50.188 68.773ZM61.218 54.973L59.8392 54.3514C59.8392 54.3514 57.8338 53.4811 56.5804 52.8595C56.455 52.8595 56.3297 52.7351 56.2044 52.7351C55.8283 52.7351 55.5777 52.8595 55.327 52.9838C55.327 52.9838 55.2016 53.1081 53.4469 55.0973C53.3215 55.3459 53.0708 55.4703 52.8202 55.4703H52.6948C52.5695 55.4703 52.3188 55.3459 52.1935 55.2216L51.5668 54.973C50.188 54.3514 48.9346 53.6054 47.9319 52.6108C47.6812 52.3622 47.3052 52.1135 47.0545 51.8649C46.1771 50.9946 45.2997 50 44.673 48.8811L44.5477 48.6324C44.4223 48.5081 44.4223 48.3838 44.297 48.1351C44.297 47.8865 44.297 47.6378 44.4223 47.5135C44.4223 47.5135 44.9237 46.8919 45.2997 46.5189C45.5504 46.2703 45.6757 45.8973 45.9264 45.6486C46.1771 45.2757 46.3025 44.7784 46.1771 44.4054C46.0518 43.7838 44.5477 40.427 44.1717 39.6811C43.921 39.3081 43.6703 39.1838 43.2943 39.0595H42.9183C42.6676 39.0595 42.2916 39.0595 41.9155 39.0595C41.6648 39.0595 41.4142 39.1838 41.1635 39.1838L41.0381 39.3081C40.7875 39.4324 40.5368 39.6811 40.2861 39.8054C40.0354 40.0541 39.9101 40.3027 39.6594 40.5514C38.782 41.6703 38.2807 43.0378 38.2807 44.4054C38.2807 45.4 38.5313 46.3946 38.9074 47.2649L39.0327 47.6378C40.1608 50 41.6648 52.1135 43.6703 53.9784L44.1717 54.4757C44.5477 54.8486 44.9237 55.0973 45.1744 55.4703C47.8065 57.7081 50.8147 59.3243 54.1989 60.1946C54.5749 60.3189 55.0763 60.3189 55.4523 60.4432C55.8283 60.4432 56.3297 60.4432 56.7057 60.4432C57.3324 60.4432 58.0845 60.1946 58.5858 59.9459C58.9619 59.6973 59.2125 59.6973 59.4632 59.4486L59.7139 59.2C59.9646 58.9513 60.2153 58.827 60.4659 58.5784C60.7166 58.3297 60.9673 58.0811 61.0926 57.8324C61.3433 57.3351 61.4687 56.7135 61.594 56.0919C61.594 55.8432 61.594 55.4703 61.594 55.2216C61.594 55.2216 61.4687 55.0973 61.218 54.973Z" fill="white"/>
</svg>
