<svg width="70" height="70" viewBox="0 0 70 70" fill="none" xmlns="http://www.w3.org/2000/svg">
<path d="M59.891 10.2162C53.406 3.59459 44.4414 0 35.2861 0C15.8311 0 0.190736 15.7027 0.381471 34.8108C0.381471 40.8649 2.09809 46.7297 4.95913 52.027L0 70L18.5014 65.2703C23.6512 68.1081 29.3733 69.4324 35.0954 69.4324C54.3597 69.4324 70 53.7297 70 34.6216C70 25.3513 66.376 16.6486 59.891 10.2162ZM35.2861 63.5676C30.1362 63.5676 24.9864 62.2432 20.5995 59.5946L19.455 59.027L8.39237 61.8649L11.2534 51.0811L10.4905 49.9459C2.09809 36.5135 6.10354 18.7297 19.8365 10.4054C33.5695 2.08108 51.3079 6.05405 59.7003 19.6757C68.0926 33.2973 64.0872 50.8919 50.3542 59.2162C45.9673 62.0541 40.6267 63.5676 35.2861 63.5676ZM52.0708 42.5676L49.9728 41.6216C49.9728 41.6216 46.921 40.2973 45.0136 39.3513C44.8229 39.3513 44.6321 39.1622 44.4414 39.1622C43.8692 39.1622 43.4877 39.3513 43.1063 39.5405C43.1063 39.5405 42.9155 39.7297 40.2452 42.7568C40.0545 43.1351 39.673 43.3243 39.2916 43.3243H39.1008C38.9101 43.3243 38.5286 43.1351 38.3379 42.9459L37.3842 42.5676C35.2861 41.6216 33.3787 40.4865 31.8529 38.973C31.4714 38.5946 30.8992 38.2162 30.5177 37.8378C29.1826 36.5135 27.8474 35 26.8937 33.2973L26.703 32.9189C26.5123 32.7297 26.5123 32.5405 26.3215 32.1622C26.3215 31.7838 26.3215 31.4054 26.5123 31.2162C26.5123 31.2162 27.2752 30.2703 27.8474 29.7027C28.2289 29.3243 28.4196 28.7568 28.8011 28.3784C29.1826 27.8108 29.3733 27.0541 29.1826 26.4865C28.9918 25.5405 26.703 20.4324 26.1308 19.2973C25.7493 18.7297 25.3678 18.5405 24.7956 18.3514H24.2234C23.842 18.3514 23.2698 18.3514 22.6975 18.3514C22.3161 18.3514 21.9346 18.5405 21.5531 18.5405L21.3624 18.7297C20.9809 18.9189 20.5995 19.2973 20.218 19.4865C19.8365 19.8649 19.6458 20.2432 19.2643 20.6216C17.9292 22.3243 17.1662 24.4054 17.1662 26.4865C17.1662 28 17.5477 29.5135 18.1199 30.8378L18.3106 31.4054C20.0272 35 22.3161 38.2162 25.3678 41.0541L26.1308 41.8108C26.703 42.3784 27.2752 42.7568 27.6567 43.3243C31.6621 46.7297 36.2398 49.1892 41.3896 50.5135C41.9619 50.7027 42.7248 50.7027 43.297 50.8919C43.8692 50.8919 44.6322 50.8919 45.2044 50.8919C46.158 50.8919 47.3025 50.5135 48.0654 50.1351C48.6376 49.7568 49.0191 49.7568 49.4005 49.3784L49.782 49C50.1635 48.6216 50.545 48.4324 50.9264 48.0541C51.3079 47.6757 51.6894 47.2973 51.8801 46.9189C52.2616 46.1622 52.4523 45.2162 52.6431 44.2703C52.6431 43.8919 52.6431 43.3243 52.6431 42.9459C52.6431 42.9459 52.4523 42.7568 52.0708 42.5676Z" fill="white"/>
</svg>
