<svg width="48" height="48" viewBox="0 0 48 48" fill="none" xmlns="http://www.w3.org/2000/svg">
<circle cx="24" cy="24" r="24" fill="#252525"/>
<path d="M33.5789 14.0361C30.9852 11.4286 27.5316 10 23.8561 10C16.2831 10 10.111 16.1721 10.111 23.7451C10.111 26.1723 10.749 28.5302 11.9418 30.6107L10 37.7399L17.2817 35.8258C19.2929 36.9215 21.5537 37.5041 23.8561 37.5041C31.429 37.5041 37.6012 31.332 37.6012 23.759C37.6012 20.0834 36.1726 16.6298 33.5789 14.0361ZM23.8561 35.1739C21.8033 35.1739 19.7922 34.6191 18.0307 33.5789L17.6146 33.3292L13.2872 34.4666L14.4384 30.2501L14.161 29.8201C13.0236 28.0032 12.4134 25.8949 12.4134 23.7451C12.4134 17.4482 17.5452 12.3163 23.8422 12.3163C26.8936 12.3163 29.7647 13.5091 31.9145 15.6728C34.0782 17.8365 35.2571 20.7076 35.2571 23.759C35.2849 30.0559 30.153 35.1739 23.8561 35.1739ZM30.1253 26.63C29.7785 26.4636 28.0864 25.6314 27.7813 25.5066C27.4622 25.3956 27.2403 25.3401 27.0045 25.673C26.7687 26.0198 26.1169 26.7965 25.9227 27.0184C25.7285 27.2542 25.5205 27.2819 25.1737 27.1016C24.827 26.9352 23.7174 26.5607 22.4136 25.3956C21.3872 24.4802 20.7076 23.3567 20.4995 23.01C20.3054 22.6632 20.4718 22.4829 20.6521 22.3026C20.8047 22.1501 20.9989 21.9004 21.1653 21.7062C21.3317 21.512 21.4011 21.3595 21.512 21.1376C21.623 20.9018 21.5675 20.7076 21.4843 20.5411C21.4011 20.3747 20.7076 18.6826 20.4302 17.9891C20.1528 17.3233 19.8615 17.4065 19.6535 17.3927C19.4454 17.3927 19.2235 17.3927 18.9877 17.3927C18.7519 17.3927 18.3913 17.4759 18.0723 17.8226C17.7672 18.1694 16.8795 19.0016 16.8795 20.6937C16.8795 22.3858 18.1139 24.0225 18.2803 24.2444C18.4468 24.4802 20.7076 27.9477 24.1473 29.4318C24.9657 29.7924 25.6037 30.0004 26.103 30.153C26.9213 30.4165 27.6703 30.3749 28.2667 30.2917C28.9325 30.1946 30.3056 29.4595 30.583 28.6551C30.8742 27.8506 30.8742 27.171 30.7772 27.0184C30.6801 26.8658 30.472 26.7965 30.1253 26.63Z" fill="white"/>
</svg>
